# xmcd
#
# Track frame offsets: 
#        150
#        30520
#        52120
#        66635
#        84542
#        99897
#        117542
#
# Disc length: 2135 seconds
#
# Revision: 4
# Processed by: cddbd v1.5.2PL0 Copyright (c) Steve Scherf et al.
# Submitted via: ExactAudioCopy v0.99pb5
#
DISCID=5d085507
DTITLE=The John Dummer Band - Blue
DYEAR=2003
DGENRE=Blues
TTITLE0=If I Could Keep From Laughing
TTITLE1=Medicine Weasel
TTITLE2=Rambling Boy
TTITLE3=Me And Your Boogie
TTITLE4=Time Will Tell
TTITLE5=The End Game
TTITLE6=Me And The Lady
EXTD=ARD Vertigo Repertoire Records REP 4450
EXTT0=
EXTT1=
EXTT2=
EXTT3=
EXTT4=
EXTT5=
EXTT6=
PLAYORDER=
